<svg width="17" height="16" viewBox="0 0 17 16" fill="none" xmlns="http://www.w3.org/2000/svg">
<g clip-path="url(#clip0_1498_1440)">
<path d="M8.9129 0C4.49466 0 0.912903 3.58176 0.912903 8C0.912903 11.7517 3.49594 14.8998 6.98042 15.7645V10.4448H5.33082V8H6.98042V6.94656C6.98042 4.22368 8.21274 2.9616 10.886 2.9616C11.3929 2.9616 12.2675 3.06112 12.6252 3.16032V5.37632C12.4364 5.35648 12.1084 5.34656 11.7011 5.34656C10.3894 5.34656 9.8825 5.84352 9.8825 7.13536V8H12.4956L12.0467 10.4448H9.8825V15.9414C13.8438 15.463 16.9132 12.0902 16.9132 8C16.9129 3.58176 13.3311 0 8.9129 0Z" fill="#1E1E1E"/>
</g>
<defs>
<clipPath id="clip0_1498_1440">
<rect width="16" height="16" fill="white" transform="translate(0.912903)"/>
</clipPath>
</defs>
</svg>
