<svg width="25" height="24" viewBox="0 0 25 24" fill="none" xmlns="http://www.w3.org/2000/svg">
<g clip-path="url(#clip0_1492_1022)">
<path d="M12.1306 2.16094C15.3369 2.16094 15.7166 2.175 16.9775 2.23125C18.1494 2.28281 18.7822 2.47969 19.2041 2.64375C19.7619 2.85938 20.165 3.12187 20.5822 3.53906C21.0041 3.96094 21.2619 4.35937 21.4775 4.91719C21.6416 5.33906 21.8384 5.97656 21.89 7.14375C21.9462 8.40937 21.9603 8.78906 21.9603 11.9906C21.9603 15.1969 21.9462 15.5766 21.89 16.8375C21.8384 18.0094 21.6416 18.6422 21.4775 19.0641C21.2619 19.6219 20.9994 20.025 20.5822 20.4422C20.1603 20.8641 19.7619 21.1219 19.2041 21.3375C18.7822 21.5016 18.1447 21.6984 16.9775 21.75C15.7119 21.8062 15.3322 21.8203 12.1306 21.8203C8.92437 21.8203 8.54468 21.8062 7.28374 21.75C6.11187 21.6984 5.47905 21.5016 5.05718 21.3375C4.49937 21.1219 4.09624 20.8594 3.67905 20.4422C3.25718 20.0203 2.99937 19.6219 2.78374 19.0641C2.61968 18.6422 2.4228 18.0047 2.37124 16.8375C2.31499 15.5719 2.30093 15.1922 2.30093 11.9906C2.30093 8.78437 2.31499 8.40469 2.37124 7.14375C2.4228 5.97187 2.61968 5.33906 2.78374 4.91719C2.99937 4.35937 3.26187 3.95625 3.67905 3.53906C4.10093 3.11719 4.49937 2.85938 5.05718 2.64375C5.47905 2.47969 6.11655 2.28281 7.28374 2.23125C8.54468 2.175 8.92437 2.16094 12.1306 2.16094ZM12.1306 0C8.8728 0 8.46499 0.0140625 7.1853 0.0703125C5.9103 0.126562 5.03374 0.332812 4.27437 0.628125C3.48218 0.9375 2.81187 1.34531 2.14624 2.01562C1.47593 2.68125 1.06812 3.35156 0.75874 4.13906C0.463428 4.90313 0.257178 5.775 0.200928 7.05C0.144678 8.33437 0.130615 8.74219 0.130615 12C0.130615 15.2578 0.144678 15.6656 0.200928 16.9453C0.257178 18.2203 0.463428 19.0969 0.75874 19.8562C1.06812 20.6484 1.47593 21.3187 2.14624 21.9844C2.81187 22.65 3.48218 23.0625 4.26968 23.3672C5.03374 23.6625 5.90561 23.8687 7.18062 23.925C8.4603 23.9812 8.86811 23.9953 12.1259 23.9953C15.3837 23.9953 15.7916 23.9812 17.0712 23.925C18.3462 23.8687 19.2228 23.6625 19.9822 23.3672C20.7697 23.0625 21.44 22.65 22.1056 21.9844C22.7712 21.3187 23.1837 20.6484 23.4884 19.8609C23.7837 19.0969 23.99 18.225 24.0462 16.95C24.1025 15.6703 24.1166 15.2625 24.1166 12.0047C24.1166 8.74688 24.1025 8.33906 24.0462 7.05937C23.99 5.78437 23.7837 4.90781 23.4884 4.14844C23.1931 3.35156 22.7853 2.68125 22.115 2.01562C21.4494 1.35 20.7791 0.9375 19.9916 0.632812C19.2275 0.3375 18.3556 0.13125 17.0806 0.075C15.7962 0.0140625 15.3884 0 12.1306 0Z" fill="white"/>
<path d="M12.1306 5.83594C8.72749 5.83594 5.96655 8.59688 5.96655 12C5.96655 15.4031 8.72749 18.1641 12.1306 18.1641C15.5337 18.1641 18.2947 15.4031 18.2947 12C18.2947 8.59688 15.5337 5.83594 12.1306 5.83594ZM12.1306 15.9984C9.9228 15.9984 8.13218 14.2078 8.13218 12C8.13218 9.79219 9.9228 8.00156 12.1306 8.00156C14.3384 8.00156 16.1291 9.79219 16.1291 12C16.1291 14.2078 14.3384 15.9984 12.1306 15.9984Z" fill="white"/>
<path d="M19.9775 5.59214C19.9775 6.38902 19.3306 7.0312 18.5384 7.0312C17.7416 7.0312 17.0994 6.38433 17.0994 5.59214C17.0994 4.79526 17.7462 4.15308 18.5384 4.15308C19.3306 4.15308 19.9775 4.79995 19.9775 5.59214Z" fill="white"/>
</g>
<defs>
<clipPath id="clip0_1492_1022">
<rect width="24" height="24" fill="white" transform="translate(0.130615)"/>
</clipPath>
</defs>
</svg>
