<svg width="19" height="18" viewBox="0 0 19 18" fill="none" xmlns="http://www.w3.org/2000/svg">
<g clip-path="url(#clip0_1498_1424)">
<path d="M2.75 5.25C2.75 4.85218 2.90804 4.47064 3.18934 4.18934C3.47064 3.90804 3.85218 3.75 4.25 3.75H14.75C15.1478 3.75 15.5294 3.90804 15.8107 4.18934C16.092 4.47064 16.25 4.85218 16.25 5.25V12.75C16.25 13.1478 16.092 13.5294 15.8107 13.8107C15.5294 14.092 15.1478 14.25 14.75 14.25H4.25C3.85218 14.25 3.47064 14.092 3.18934 13.8107C2.90804 13.5294 2.75 13.1478 2.75 12.75V5.25Z" stroke="#222222" stroke-width="1.5" stroke-linecap="round" stroke-linejoin="round"/>
<path d="M2.75 5.25L9.5 9.75L16.25 5.25" stroke="#222222" stroke-width="1.5" stroke-linecap="round" stroke-linejoin="round"/>
</g>
<defs>
<clipPath id="clip0_1498_1424">
<rect width="18" height="18" fill="white" transform="translate(0.5)"/>
</clipPath>
</defs>
</svg>
