<svg width="42" height="42" viewBox="0 0 42 42" fill="none" xmlns="http://www.w3.org/2000/svg">
<path d="M17.5 10.5H26.25M17.5 5.25H31.5M12.25 16.625V24.5C12.25 26.1503 12.25 26.9745 11.7372 27.4872C11.2245 28 10.4002 28 8.75 28H7C5.34975 28 4.5255 28 4.01275 27.4872C3.5 26.9745 3.5 26.1503 3.5 24.5V20.125C3.5 18.4747 3.5 17.6505 4.01275 17.1378C4.5255 16.625 5.34975 16.625 7 16.625H12.25ZM12.25 16.625H21M27.2825 31.045C26.1817 31.7835 23.2977 33.2885 25.0547 35.1715C25.9122 36.092 26.8695 36.75 28.07 36.75H34.93C36.1305 36.75 37.0877 36.092 37.9452 35.1715C39.7022 33.2885 36.8182 31.7835 35.7175 31.0467C34.4733 30.2019 33.004 29.7501 31.5 29.7501C29.996 29.7501 28.5267 30.2001 27.2825 31.045ZM35 21.875C35 22.8033 34.6312 23.6935 33.9749 24.3499C33.3185 25.0063 32.4283 25.375 31.5 25.375C30.5717 25.375 29.6815 25.0063 29.0251 24.3499C28.3687 23.6935 28 22.8033 28 21.875C28 20.9467 28.3687 20.0565 29.0251 19.4001C29.6815 18.7437 30.5717 18.375 31.5 18.375C32.4283 18.375 33.3185 18.7437 33.9749 19.4001C34.6312 20.0565 35 20.9467 35 21.875ZM11.375 8.75C11.375 9.67826 11.0063 10.5685 10.3499 11.2249C9.6935 11.8813 8.80326 12.25 7.875 12.25C6.94674 12.25 6.0565 11.8813 5.40013 11.2249C4.74375 10.5685 4.375 9.67826 4.375 8.75C4.375 7.82174 4.74375 6.9315 5.40013 6.27513C6.0565 5.61875 6.94674 5.25 7.875 5.25C8.80326 5.25 9.6935 5.61875 10.3499 6.27513C11.0063 6.9315 11.375 7.82174 11.375 8.75Z" stroke="white" stroke-width="2.625" stroke-linecap="round" stroke-linejoin="round"/>
</svg>
