<svg width="42" height="42" viewBox="0 0 42 42" fill="none" xmlns="http://www.w3.org/2000/svg">
<g clip-path="url(#clip0_1587_406)">
<path d="M5.25 36.75H12.25L35 14C35.9283 13.0718 36.4497 11.8128 36.4497 10.5C36.4497 9.18729 35.9283 7.9283 35 7.00004C34.0717 6.07178 32.8128 5.55029 31.5 5.55029C30.1872 5.55029 28.9283 6.07178 28 7.00004L5.25 29.75V36.75Z" stroke="white" stroke-width="3.5" stroke-linecap="round" stroke-linejoin="round"/>
<path d="M25.375 9.625L32.375 16.625" stroke="white" stroke-width="3.5" stroke-linecap="round" stroke-linejoin="round"/>
<path d="M21 14L12.25 5.25L5.25 12.25L14 21" stroke="white" stroke-width="3.5" stroke-linecap="round" stroke-linejoin="round"/>
<path d="M12.25 14L9.625 16.625" stroke="white" stroke-width="3.5" stroke-linecap="round" stroke-linejoin="round"/>
<path d="M28 21L36.75 29.75L29.75 36.75L21 28" stroke="white" stroke-width="3.5" stroke-linecap="round" stroke-linejoin="round"/>
<path d="M28 29.75L25.375 32.375" stroke="white" stroke-width="3.5" stroke-linecap="round" stroke-linejoin="round"/>
</g>
<defs>
<clipPath id="clip0_1587_406">
<rect width="42" height="42" fill="white"/>
</clipPath>
</defs>
</svg>
