<svg width="42" height="42" viewBox="0 0 42 42" fill="none" xmlns="http://www.w3.org/2000/svg">
<g clip-path="url(#clip0_1587_417)">
<path d="M17.5 5.25C17.5 5.71413 17.6844 6.15925 18.0126 6.48744C18.3408 6.81563 18.7859 7 19.25 7C19.7141 7 20.1592 6.81563 20.4874 6.48744C20.8156 6.15925 21 5.71413 21 5.25C21 4.78587 20.8156 4.34075 20.4874 4.01256C20.1592 3.68437 19.7141 3.5 19.25 3.5C18.7859 3.5 18.3408 3.68437 18.0126 4.01256C17.6844 4.34075 17.5 4.78587 17.5 5.25Z" stroke="white" stroke-width="3.5" stroke-linecap="round" stroke-linejoin="round"/>
<path d="M5.25 24.5L12.25 26.25L13.125 25.375" stroke="white" stroke-width="3.5" stroke-linecap="round" stroke-linejoin="round"/>
<path d="M21 31.5V26.25L15.75 21.1347L17.0625 12.25" stroke="white" stroke-width="3.5" stroke-linecap="round" stroke-linejoin="round"/>
<path d="M10.5 17.5V14L17.5 12.25L21.875 16.625L26.25 17.5" stroke="white" stroke-width="3.5" stroke-linecap="round" stroke-linejoin="round"/>
<path d="M36.75 38.5C36.75 38.0359 36.5656 37.5908 36.2374 37.2626C35.9092 36.9344 35.4641 36.75 35 36.75H7C6.53587 36.75 6.09075 36.9344 5.76256 37.2626C5.43437 37.5908 5.25 38.0359 5.25 38.5" stroke="white" stroke-width="3.5" stroke-linecap="round" stroke-linejoin="round"/>
<path d="M31.5 36.75L33.25 17.5L36.75 15.75" stroke="white" stroke-width="3.5" stroke-linecap="round" stroke-linejoin="round"/>
</g>
<defs>
<clipPath id="clip0_1587_417">
<rect width="42" height="42" fill="white"/>
</clipPath>
</defs>
</svg>
