<svg width="17" height="16" viewBox="0 0 17 16" fill="none" xmlns="http://www.w3.org/2000/svg">
<path d="M0.0870972 16L1.21176 11.8913C0.517764 10.6887 0.153097 9.32533 0.153764 7.92733C0.155764 3.55667 3.71243 0 8.08243 0C10.2031 0.000666667 12.1938 0.826667 13.6911 2.32533C15.1878 3.824 16.0118 5.816 16.0111 7.93467C16.0091 12.306 12.4524 15.8627 8.08243 15.8627C6.75576 15.862 5.44843 15.5293 4.29043 14.8973L0.0870972 16ZM4.4851 13.462C5.60243 14.1253 6.6691 14.5227 8.07976 14.5233C11.7118 14.5233 14.6704 11.5673 14.6724 7.93333C14.6738 4.292 11.7291 1.34 8.0851 1.33867C4.45043 1.33867 1.49376 4.29467 1.49243 7.928C1.49176 9.41133 1.92643 10.522 2.65643 11.684L1.99043 14.116L4.4851 13.462ZM12.0764 9.81933C12.0271 9.73667 11.8951 9.68733 11.6964 9.588C11.4984 9.48867 10.5244 9.00933 10.3424 8.94333C10.1611 8.87733 10.0291 8.844 9.89643 9.04267C9.76443 9.24067 9.38443 9.68733 9.2691 9.81933C9.15376 9.95133 9.03776 9.968 8.83976 9.86867C8.64176 9.76933 8.0031 9.56067 7.24643 8.88533C6.65776 8.36 6.25976 7.71133 6.14443 7.51267C6.0291 7.31467 6.13243 7.20733 6.2311 7.10867C6.32043 7.02 6.4291 6.87733 6.52843 6.76133C6.6291 6.64667 6.66176 6.564 6.72843 6.43133C6.79443 6.29933 6.76176 6.18333 6.71176 6.084C6.66176 5.98533 6.26576 5.01 6.1011 4.61333C5.93976 4.22733 5.77643 4.27933 5.6551 4.27333L5.2751 4.26667C5.1431 4.26667 4.92843 4.316 4.7471 4.51467C4.56576 4.71333 4.05376 5.192 4.05376 6.16733C4.05376 7.14267 4.76376 8.08467 4.86243 8.21667C4.96176 8.34867 6.2591 10.35 8.24643 11.208C8.7191 11.412 9.08843 11.534 9.37576 11.6253C9.85043 11.776 10.2824 11.7547 10.6238 11.704C11.0044 11.6473 11.7958 11.2247 11.9611 10.762C12.1264 10.2987 12.1264 9.902 12.0764 9.81933Z" fill="#1E1E1E"/>
</svg>
