<svg width="17" height="16" viewBox="0 0 17 16" fill="none" xmlns="http://www.w3.org/2000/svg">
  <path d="M16.1667 4.94C16.0613 4.55 15.856 4.19267 15.5747 3.90333C15.2933 3.61333 14.944 3.40267 14.5513 3.292C13.3133 2.93333 8.50001 2.93333 8.50001 2.93333C8.50001 2.93333 3.68667 2.93333 2.44867 3.292C2.05601 3.40267 1.70667 3.61333 1.42534 3.90333C1.14401 4.19267 0.938672 4.55 0.833339 4.94C0.500006 6.21333 0.500006 8.00067 0.500006 8.00067C0.500006 8.00067 0.500006 9.788 0.833339 11.06C0.938672 11.45 1.14401 11.8073 1.42534 12.0967C1.70667 12.386 2.05601 12.5967 2.44867 12.7073C3.68667 13.066 8.50001 13.066 8.50001 13.066C8.50001 13.066 13.3133 13.066 14.5513 12.7073C14.944 12.5967 15.2933 12.386 15.5747 12.0967C15.856 11.8073 16.0613 11.45 16.1667 11.06C16.5 9.788 16.5 8.00067 16.5 8.00067C16.5 8.00067 16.5 6.21333 16.1667 4.94ZM6.83334 10.6V5.40133L11.1667 8.00067L6.83334 10.6Z" fill="#1E1E1E"/>
</svg>
