<svg width="48" height="50" viewBox="0 0 48 50" fill="none" xmlns="http://www.w3.org/2000/svg">
<path d="M43.75 0H4.25C3.12283 0 2.04183 0.447766 1.2448 1.2448C0.447766 2.04183 0 3.12283 0 4.25V16.5525C0.00105403 17.3692 0.237406 18.1683 0.680772 18.8542C1.12414 19.5401 1.75574 20.0837 2.5 20.42L18.15 27.5325C15.8327 28.8292 14.011 30.8579 12.9702 33.3008C11.9294 35.7438 11.7283 38.4629 12.3983 41.0324C13.0684 43.6018 14.5717 45.8765 16.673 47.5001C18.7742 49.1236 21.3546 50.0044 24.01 50.0044C26.6654 50.0044 29.2458 49.1236 31.347 47.5001C33.4483 45.8765 34.9516 43.6018 35.6217 41.0324C36.2917 38.4629 36.0906 35.7438 35.0498 33.3008C34.009 30.8579 32.1873 28.8292 29.87 27.5325L45.5 20.42C46.2443 20.0837 46.8759 19.5401 47.3192 18.8542C47.7626 18.1683 47.9989 17.3692 48 16.5525V4.25C48 3.12283 47.5522 2.04183 46.7552 1.2448C45.9582 0.447766 44.8772 0 43.75 0ZM32 4V22.1675L24 25.8025L16 22.1675V4H32ZM4 16.5525V4.25C4 4.1837 4.02634 4.12011 4.07322 4.07322C4.12011 4.02634 4.1837 4 4.25 4H12V20.3475L4.1475 16.78C4.10364 16.7603 4.06639 16.7283 4.04023 16.688C4.01407 16.6476 4.0001 16.6006 4 16.5525ZM24 46C22.4177 46 20.871 45.5308 19.5554 44.6518C18.2398 43.7727 17.2145 42.5233 16.609 41.0615C16.0035 39.5997 15.845 37.9911 16.1537 36.4393C16.4624 34.8874 17.2243 33.462 18.3431 32.3431C19.462 31.2243 20.8874 30.4624 22.4393 30.1537C23.9911 29.845 25.5997 30.0035 27.0615 30.609C28.5233 31.2145 29.7727 32.2398 30.6518 33.5554C31.5308 34.871 32 36.4178 32 38C32 40.1217 31.1571 42.1566 29.6569 43.6569C28.1566 45.1571 26.1217 46 24 46ZM44 16.5525C43.9999 16.6006 43.9859 16.6476 43.9598 16.688C43.9336 16.7283 43.8964 16.7603 43.8525 16.78L36 20.3475V4H43.75C43.8163 4 43.8799 4.02634 43.9268 4.07322C43.9737 4.12011 44 4.1837 44 4.25V16.5525Z" fill="#4F76DC"/>
</svg>
