<svg width="58" height="52" viewBox="0 0 58 52" fill="none" xmlns="http://www.w3.org/2000/svg">
<path d="M23.6666 10H36.9999M23.6666 2H44.9999M15.6666 19.3333V31.3333C15.6666 33.848 15.6666 35.104 14.8853 35.8853C14.1039 36.6667 12.8479 36.6667 10.3333 36.6667H7.66658C5.15192 36.6667 3.89592 36.6667 3.11459 35.8853C2.33325 35.104 2.33325 33.848 2.33325 31.3333V24.6667C2.33325 22.152 2.33325 20.896 3.11459 20.1147C3.89592 19.3333 5.15192 19.3333 7.66658 19.3333H15.6666ZM15.6666 19.3333H28.9999M38.5733 41.3067C36.8959 42.432 32.5013 44.7253 35.1786 47.5947C36.4853 48.9973 37.9439 50 39.7733 50H50.2266C52.0559 50 53.5146 48.9973 54.8213 47.5947C57.4986 44.7253 53.1039 42.432 51.4266 41.3093C49.5306 40.0219 47.2917 39.3336 44.9999 39.3336C42.7082 39.3336 40.4692 40.0192 38.5733 41.3067ZM50.3332 27.3333C50.3332 28.7478 49.7713 30.1044 48.7712 31.1046C47.771 32.1048 46.4144 32.6667 44.9999 32.6667C43.5854 32.6667 42.2289 32.1048 41.2287 31.1046C40.2285 30.1044 39.6666 28.7478 39.6666 27.3333C39.6666 25.9188 40.2285 24.5623 41.2287 23.5621C42.2289 22.5619 43.5854 22 44.9999 22C46.4144 22 47.771 22.5619 48.7712 23.5621C49.7713 24.5623 50.3332 25.9188 50.3332 27.3333ZM14.3333 7.33333C14.3333 8.74782 13.7713 10.1044 12.7712 11.1046C11.771 12.1048 10.4144 12.6667 8.99992 12.6667C7.58543 12.6667 6.22888 12.1048 5.22868 11.1046C4.22849 10.1044 3.66659 8.74782 3.66659 7.33333C3.66659 5.91885 4.22849 4.56229 5.22868 3.5621C6.22888 2.5619 7.58543 2 8.99992 2C10.4144 2 11.771 2.5619 12.7712 3.5621C13.7713 4.56229 14.3333 5.91885 14.3333 7.33333Z" stroke="#4F76DC" stroke-width="4" stroke-linecap="round" stroke-linejoin="round"/>
</svg>
