<svg width="52" height="47" viewBox="0 0 52 47" fill="none" xmlns="http://www.w3.org/2000/svg">
<path d="M28.6667 44.9999L31.3333 20.9999M31.3333 20.9999L50 4.99992M31.3333 20.9999L18 18.3333H2M24.6667 11.6666L36.6667 2.33325M12.6667 7.66659C12.6667 8.37383 12.9476 9.05211 13.4477 9.5522C13.9478 10.0523 14.6261 10.3333 15.3333 10.3333C16.0406 10.3333 16.7189 10.0523 17.219 9.5522C17.719 9.05211 18 8.37383 18 7.66659C18 6.95934 17.719 6.28106 17.219 5.78097C16.7189 5.28087 16.0406 4.99992 15.3333 4.99992C14.6261 4.99992 13.9478 5.28087 13.4477 5.78097C12.9476 6.28106 12.6667 6.95934 12.6667 7.66659Z" stroke="#4F76DC" stroke-width="4" stroke-linecap="round" stroke-linejoin="round"/>
</svg>
